<svg width="15" height="15" viewBox="0 0 15 15" fill="none" xmlns="http://www.w3.org/2000/svg">
<path fill-rule="evenodd" clip-rule="evenodd" d="M10.5306 1.395C9.74 1.35875 9.5025 1.35125 7.5 1.35125C5.4975 1.35125 5.26 1.35875 4.46938 1.395C3.99385 1.40065 3.52283 1.48796 3.07688 1.65313C2.75334 1.77793 2.45951 1.96909 2.2143 2.2143C1.96909 2.45951 1.77793 2.75334 1.65313 3.07688C1.48796 3.52283 1.40065 3.99385 1.395 4.46938C1.35875 5.26 1.35125 5.4975 1.35125 7.5C1.35125 9.5025 1.35875 9.74 1.395 10.5306C1.40065 11.0062 1.48796 11.4772 1.65313 11.9231C1.77793 12.2467 1.96909 12.5405 2.2143 12.7857C2.45951 13.0309 2.75334 13.2221 3.07688 13.3469C3.52283 13.512 3.99385 13.5994 4.46938 13.605C5.26 13.6412 5.4975 13.6487 7.5 13.6487C9.5025 13.6487 9.74 13.6412 10.5306 13.605C11.0062 13.5994 11.4772 13.512 11.9231 13.3469C12.2467 13.2221 12.5405 13.0309 12.7857 12.7857C13.0309 12.5405 13.2221 12.2467 13.3469 11.9231C13.512 11.4772 13.5994 11.0062 13.605 10.5306C13.6412 9.74 13.6487 9.50375 13.6487 7.50062C13.6487 5.4975 13.6412 5.26 13.605 4.46938C13.5994 3.99385 13.512 3.52283 13.3469 3.07688C13.2221 2.75334 13.0309 2.45951 12.7857 2.2143C12.5405 1.96909 12.2467 1.77793 11.9231 1.65313C11.4772 1.48796 11.0062 1.40065 10.5306 1.395ZM4.4075 0.045C5.2075 0.00875002 5.46313 0 7.5 0C9.5375 0 9.79187 0.00812497 10.5919 0.045625C11.2141 0.0579145 11.8297 0.175625 12.4125 0.39375C12.9108 0.586436 13.3633 0.881111 13.7411 1.25889C14.1189 1.63666 14.4136 2.0892 14.6063 2.5875C14.8245 3.1701 14.9424 3.78548 14.955 4.4075C14.9913 5.2075 15 5.4625 15 7.5C15 9.5375 14.9913 9.79187 14.955 10.5919C14.9427 11.2141 14.825 11.8297 14.6069 12.4125C14.4142 12.9108 14.1195 13.3633 13.7417 13.7411C13.364 14.1189 12.9114 14.4136 12.4131 14.6063C11.8303 14.8246 11.2147 14.9425 10.5925 14.955C9.7925 14.9913 9.53687 15 7.5 15C5.46313 15 5.20813 14.9913 4.40813 14.955C3.7859 14.9425 3.1703 14.8246 2.5875 14.6063C2.0892 14.4136 1.63666 14.1189 1.25889 13.7411C0.881111 13.3633 0.586436 12.9108 0.39375 12.4125C0.175481 11.8299 0.0575601 11.2145 0.045 10.5925C0.00875002 9.7925 0 9.5375 0 7.5C0 5.4625 0.00875002 5.20813 0.045 4.40813C0.0574896 3.7859 0.175412 3.1703 0.39375 2.5875C0.586436 2.0892 0.881111 1.63666 1.25889 1.25889C1.63666 0.881111 2.0892 0.586436 2.5875 0.39375C3.1701 0.175481 3.78548 0.0575601 4.4075 0.045ZM11.5039 4.39617C12.001 4.39617 12.4039 3.99323 12.4039 3.49617C12.4039 2.99912 12.001 2.59617 11.5039 2.59617C11.0068 2.59617 10.6039 2.99912 10.6039 3.49617C10.6039 3.99323 11.0068 4.39617 11.5039 4.39617ZM7.49924 3.64982C6.73753 3.64982 5.99293 3.87569 5.3596 4.29887C4.72626 4.72205 4.23264 5.32353 3.94114 6.02726C3.64965 6.73098 3.57339 7.50534 3.72199 8.25241C3.87059 8.99947 4.23738 9.6857 4.77599 10.2243C5.3146 10.7629 6.00082 11.1297 6.74789 11.2783C7.49496 11.4269 8.26932 11.3506 8.97304 11.0592C9.67677 10.7677 10.2783 10.274 10.7014 9.6407C11.1246 9.00737 11.3505 8.26277 11.3505 7.50106C11.3505 6.47965 10.9447 5.50007 10.2225 4.77782C9.50023 4.05557 8.52065 3.64982 7.49924 3.64982ZM7.49924 10.0011C7.00478 10.0011 6.52143 9.85444 6.11031 9.57974C5.69919 9.30503 5.37876 8.91459 5.18954 8.45777C5.00032 8.00096 4.95081 7.49829 5.04727 7.01334C5.14374 6.52839 5.38184 6.08293 5.73147 5.7333C6.0811 5.38367 6.52656 5.14556 7.01151 5.0491C7.49646 4.95264 7.99913 5.00215 8.45594 5.19137C8.91276 5.38058 9.30321 5.70102 9.57791 6.11214C9.85261 6.52326 9.99924 7.00661 9.99924 7.50106C9.99924 8.1641 9.73584 8.79999 9.267 9.26883C8.79816 9.73767 8.16228 10.0011 7.49924 10.0011Z" fill="#181611"/>
</svg>
