<svg width="15" height="15" viewBox="0 0 15 15" fill="none" xmlns="http://www.w3.org/2000/svg">
<path d="M2.21591 0C0.998153 0 0 0.998153 0 2.21591C0 3.43367 0.998153 4.43182 2.21591 4.43182C3.43366 4.43182 4.43182 3.43367 4.43182 2.21591C4.43182 0.998153 3.43366 0 2.21591 0ZM2.21591 1.02273C2.88094 1.02273 3.40909 1.55088 3.40909 2.21591C3.40909 2.88094 2.88094 3.40909 2.21591 3.40909C1.55088 3.40909 1.02273 2.88094 1.02273 2.21591C1.02273 1.55088 1.55088 1.02273 2.21591 1.02273ZM11.0795 4.43182C10.1124 4.43182 9.41385 4.79529 8.86364 5.24148C8.84244 4.98825 8.60639 4.77187 8.35227 4.77273H5.625C5.35726 4.77275 5.11366 5.01635 5.11364 5.28409V14.4886C5.11366 14.7564 5.35726 15 5.625 15H8.52273C8.79047 15 9.03406 14.7564 9.03409 14.4886V9.375C9.03409 8.97808 9.16156 8.60319 9.33771 8.3576C9.51387 8.11203 9.70584 8.01136 9.88636 8.01136H10.2273C10.4078 8.01136 10.5998 8.11203 10.7759 8.3576C10.9521 8.60319 11.0795 8.97808 11.0795 9.375V14.4886C11.0796 14.7564 11.3232 15 11.5909 15H14.4886C14.7564 15 15 14.7564 15 14.4886V8.52273C15 7.36447 14.7824 6.3324 14.1371 5.57706C13.4917 4.82172 12.4565 4.43182 11.0795 4.43182ZM0.799006 4.77273C0.549487 4.79888 0.339567 5.03321 0.340909 5.28409V14.4886C0.340936 14.7564 0.584531 15 0.852273 15H3.75C4.01774 15 4.26134 14.7564 4.26136 14.4886V5.28409C4.26134 5.01635 4.01774 4.77275 3.75 4.77273C2.7684 4.77273 1.77647 4.77273 0.799006 4.77273ZM11.0795 5.45455C12.2715 5.45455 12.9424 5.75484 13.3594 6.2429C13.7763 6.73096 13.9773 7.49552 13.9773 8.52273V13.9773H12.1023V9.375C12.1023 8.77094 11.9237 8.20269 11.6069 7.76101C11.2901 7.31934 10.8022 6.98864 10.2273 6.98864H9.88636C9.31143 6.98864 8.82354 7.31934 8.50675 7.76101C8.18995 8.20269 8.01136 8.77094 8.01136 9.375V11.25C7.99362 11.2491 8.0291 11.2471 8.01136 11.248C8.01136 11.8077 8.01136 11.5392 8.01136 11.8077C8.01136 12.0761 8.01136 11.8856 8.01136 12.2727V12.6136C8.0291 12.6127 7.99362 12.6127 8.01136 12.6136C8.01136 13.2215 8.01136 12.9389 8.01136 13.2102C8.01136 13.4659 8.01136 13.2102 8.01136 13.6364V13.9773H6.13636V5.79545H7.84091V6.47727C7.8408 6.68761 7.98453 6.89046 8.183 6.9601C8.38147 7.02974 8.62043 6.96115 8.75178 6.79688C9.31887 6.08984 9.86595 5.45455 11.0795 5.45455ZM1.36364 5.79545H3.23864V11.25C3.2919 11.25 3.2209 11.2491 3.23864 11.25C3.23864 11.982 3.23864 11.547 3.23864 11.8269C3.23864 12.0927 3.23864 12.0857 3.23864 12.2727V12.6136C3.25638 12.6127 3.2209 12.6127 3.23864 12.6136C3.23864 13.089 3.23864 12.8337 3.23864 13.102C3.23864 13.3703 3.23864 13.2955 3.23864 13.6364V13.9773H1.36364V5.79545Z" fill="black"/>
</svg>
