<svg width="17" height="15" viewBox="0 0 17 15" fill="none" xmlns="http://www.w3.org/2000/svg">
<path d="M16 1.00729C16 1.00729 14.6241 1.87088 13.8591 2.11575C13.4485 1.61405 12.9027 1.25846 12.2957 1.09707C11.6887 0.935677 11.0497 0.976274 10.4651 1.21337C9.88045 1.45046 9.37848 1.87262 9.02703 2.42273C8.67558 2.97285 8.49161 3.62438 8.5 4.28922V5.01371C7.3018 5.04672 6.1145 4.76435 5.04387 4.19174C3.97323 3.61913 3.05249 2.77405 2.36364 1.73177C2.36364 1.73177 -0.363636 8.25218 5.77273 11.1501C4.36854 12.1629 2.69579 12.6708 1 12.5991C7.13636 16.2216 14.6364 12.5991 14.6364 4.26749C14.6364 4.06608 14.6173 3.86467 14.5818 3.66616C15.2773 2.93732 16 1.00729 16 1.00729Z" stroke="black" stroke-width="1.3" stroke-linecap="round" stroke-linejoin="round"/>
</svg>
